<?xml version="1.0" encoding="utf-8"?>
<!-- Generator: Adobe Illustrator 28.1.0, SVG Export Plug-In . SVG Version: 6.00 Build 0)  -->
<svg version="1.1" id="Layer_1" xmlns="http://www.w3.org/2000/svg" xmlns:xlink="http://www.w3.org/1999/xlink" x="0px" y="0px"
	 viewBox="0 0 1797.3 980.2" style="enable-background:new 0 0 1797.3 980.2;" xml:space="preserve">
<g>
	<path d="M605.5,187.8c-11.8,33.4-40.3,59-80.6,59l41.3-111.1C605.5,135.7,616.4,158.3,605.5,187.8 M727.5,186.8
		c34.4-90.4-14.8-155.3-119-155.3H482.6l-175,464.1h125.9l67.9-180.9l27.2,180.9h122.1l-33.3-192.7
		C660.6,286.2,707.8,236,727.5,186.8 M1008.7,343.2l118-311.7h-125.9l-115,304.8c-11.8,31.5-26.6,47.2-50.2,47.2
		c-29.5,0-21.6-27.5-13.8-47.2L937,31.5H811.1L702.9,315.7c-50.2,131.8,2,188.8,93.4,188.8C903.5,504.5,967.4,452.3,1008.7,343.2
		 M1327.1,460.1l162.5-428.6h-116l-93.4,247.8V31.5h-118l-175,464.2h117l90.5-242.9v242.4L509.4,675.9
		C404.2,704,319,700,270.9,664.9c-124.3-91.2-29.1-272.6,4-327.7c-60.2,67.1-121.3,133.3-168.4,206.4
		C33.4,656.9,1.3,782.1,51.4,862.3c90.2,144.3,305.6,77.2,442.9,19L1770,343.2L1327.1,460.1z"/>
</g>
</svg>
